<?xml version="1.0" standalone="no"?>
<!DOCTYPE svg PUBLIC "-//W3C//DTD SVG 20010904//EN"
 "http://www.w3.org/TR/2001/REC-SVG-20010904/DTD/svg10.dtd">
<svg version="1.0" xmlns="http://www.w3.org/2000/svg"
 width="612.000000pt" height="612.000000pt" viewBox="0 0 612.000000 612.000000"
 preserveAspectRatio="xMidYMid meet">
<metadata>
Created by potrace 1.14, written by Peter Selinger 2001-2017
</metadata>
<g transform="translate(0.000000,612.000000) scale(0.100000,-0.100000)"
fill="#000000" stroke="none">
<path d="M3146 4662 c-3 -2 -20 -6 -38 -8 -104 -12 -178 -62 -302 -204 -56
-64 -164 -213 -215 -295 -23 -38 -55 -88 -70 -110 -51 -72 -124 -211 -202
-380 -12 -26 -61 -157 -63 -170 -1 -5 -12 -41 -24 -80 -23 -76 -44 -151 -48
-175 -1 -8 -5 -31 -8 -50 -3 -19 -8 -48 -11 -65 -4 -16 -8 -43 -10 -60 -5 -45
-17 -109 -21 -116 -2 -3 -6 -21 -9 -40 -3 -19 -15 -61 -26 -93 -10 -33 -19
-63 -19 -68 0 -5 -19 -51 -42 -101 -37 -79 -55 -104 -131 -179 -49 -49 -92
-88 -97 -88 -4 0 -10 -4 -12 -9 -5 -15 -644 -671 -654 -671 -1 0 -19 -17 -41
-37 -22 -21 -59 -54 -83 -73 -23 -19 -48 -39 -54 -45 -6 -5 -29 -23 -51 -39
-22 -17 -43 -35 -47 -40 -5 -7 -8 -7 -8 -1 0 7 -3 7 -8 0 -4 -6 -27 -25 -52
-43 -191 -139 -244 -179 -282 -215 -10 -9 -21 -17 -24 -17 -12 0 -154 -153
-154 -165 0 -3 601 -5 1336 -5 890 0 1333 3 1329 10 -7 11 -11 62 -20 225 -6
115 -15 219 -21 245 -2 8 -8 33 -13 55 -16 67 -23 118 -22 153 1 18 -2 38 -5
44 -4 7 -9 28 -10 47 -3 43 -11 109 -20 165 -4 23 -7 69 -8 103 0 35 -3 63 -6
63 -6 0 -3 210 4 261 6 48 44 153 56 157 6 2 10 8 10 12 0 10 25 48 75 115 40
55 160 172 194 189 15 8 32 11 37 8 16 -12 46 -62 104 -174 30 -59 62 -116 70
-126 8 -10 20 -25 25 -34 93 -141 145 -186 270 -234 77 -28 93 -33 145 -40 62
-9 144 -37 176 -61 17 -13 34 -23 37 -23 3 0 18 -5 34 -12 15 -6 35 -13 43
-15 21 -5 121 -4 145 1 48 11 176 65 191 81 31 31 23 83 -24 151 -23 34 -42
64 -42 68 0 3 -40 67 -90 142 -49 74 -90 139 -90 145 0 5 -4 9 -10 9 -5 0 -10
7 -10 15 0 8 -4 15 -10 15 -5 0 -10 6 -10 14 0 7 -7 19 -15 26 -26 21 -93 173
-115 261 -12 46 -26 100 -31 119 -5 19 -12 66 -15 105 -3 38 -8 73 -10 77 -3
4 -7 47 -10 95 -3 48 -7 108 -10 133 -2 25 -7 86 -10 135 -3 50 -7 110 -8 135
-2 25 -6 70 -9 100 -4 30 -9 91 -11 135 -3 44 -7 89 -10 100 -30 135 -41 166
-69 208 -34 51 -128 120 -207 151 -25 10 -52 21 -60 26 -8 4 -40 13 -70 20
-30 7 -66 16 -80 21 -50 16 -312 34 -324 21z"/>
</g>
</svg>
